<mxfile host="app.diagrams.net" modified="2023-12-24T13:45:34.957Z" agent="Mozilla/5.0 (Windows NT 10.0; Win64; x64) AppleWebKit/537.36 (KHTML, like Gecko) Chrome/118.0.5993.771 YaBrowser/23.11.2.771 Yowser/2.5 Safari/537.36" etag="RCyTuGcSjYaMQ9bOqZ0Y" version="22.1.11" type="device">
  <diagram name="Страница — 1" id="ibCClf85kll2x8lXQrQq">
    <mxGraphModel dx="925" dy="514" grid="1" gridSize="10" guides="1" tooltips="1" connect="1" arrows="1" fold="1" page="1" pageScale="1" pageWidth="3300" pageHeight="4681" math="0" shadow="0">
      <root>
        <mxCell id="0" />
        <mxCell id="1" parent="0" />
        <mxCell id="I3pqL2sUIo5yyG4nDDzl-2" value="" style="rounded=0;whiteSpace=wrap;html=1;fillColor=#dae8fc;strokeColor=#6c8ebf;" parent="1" vertex="1">
          <mxGeometry x="820" y="1530" width="150" height="260" as="geometry" />
        </mxCell>
        <mxCell id="I3pqL2sUIo5yyG4nDDzl-3" value="Система тестирования семантической сети" style="rounded=0;whiteSpace=wrap;html=1;" parent="1" vertex="1">
          <mxGeometry x="835" y="1560" width="120" height="60" as="geometry" />
        </mxCell>
        <mxCell id="I3pqL2sUIo5yyG4nDDzl-4" value="Система тестирования модуля диалога" style="rounded=0;whiteSpace=wrap;html=1;" parent="1" vertex="1">
          <mxGeometry x="835" y="1630" width="120" height="60" as="geometry" />
        </mxCell>
        <mxCell id="I3pqL2sUIo5yyG4nDDzl-5" value="Система сбора аналитики" style="rounded=0;whiteSpace=wrap;html=1;" parent="1" vertex="1">
          <mxGeometry x="835" y="1700" width="120" height="60" as="geometry" />
        </mxCell>
        <mxCell id="I3pqL2sUIo5yyG4nDDzl-6" value="Семантическая сеть" style="rounded=0;whiteSpace=wrap;html=1;" parent="1" vertex="1">
          <mxGeometry x="1110" y="1528" width="120" height="60" as="geometry" />
        </mxCell>
        <mxCell id="I3pqL2sUIo5yyG4nDDzl-7" value="" style="endArrow=classic;html=1;rounded=0;exitX=-0.004;exitY=0.68;exitDx=0;exitDy=0;entryX=1.009;entryY=0.151;entryDx=0;entryDy=0;entryPerimeter=0;exitPerimeter=0;" parent="1" source="I3pqL2sUIo5yyG4nDDzl-6" target="I3pqL2sUIo5yyG4nDDzl-3" edge="1">
          <mxGeometry width="50" height="50" relative="1" as="geometry">
            <mxPoint x="1010" y="1580" as="sourcePoint" />
            <mxPoint x="1060" y="1530" as="targetPoint" />
          </mxGeometry>
        </mxCell>
        <mxCell id="I3pqL2sUIo5yyG4nDDzl-8" value="Узлы, связи между узлами" style="text;html=1;strokeColor=none;fillColor=none;align=center;verticalAlign=middle;whiteSpace=wrap;rounded=0;" parent="1" vertex="1">
          <mxGeometry x="980" y="1538" width="120" height="30" as="geometry" />
        </mxCell>
        <mxCell id="I3pqL2sUIo5yyG4nDDzl-9" value="" style="endArrow=classic;html=1;rounded=0;exitX=0;exitY=0.5;exitDx=0;exitDy=0;" parent="1" source="I3pqL2sUIo5yyG4nDDzl-3" edge="1">
          <mxGeometry width="50" height="50" relative="1" as="geometry">
            <mxPoint x="1010" y="1580" as="sourcePoint" />
            <mxPoint x="680" y="1590" as="targetPoint" />
          </mxGeometry>
        </mxCell>
        <mxCell id="I3pqL2sUIo5yyG4nDDzl-10" value="Содержание возможных вопрсов" style="text;html=1;strokeColor=none;fillColor=none;align=center;verticalAlign=middle;whiteSpace=wrap;rounded=0;" parent="1" vertex="1">
          <mxGeometry x="690" y="1560" width="130" height="30" as="geometry" />
        </mxCell>
        <mxCell id="I3pqL2sUIo5yyG4nDDzl-11" value="Модуль диалога" style="rounded=0;whiteSpace=wrap;html=1;" parent="1" vertex="1">
          <mxGeometry x="1110" y="1590" width="120" height="150" as="geometry" />
        </mxCell>
        <mxCell id="I3pqL2sUIo5yyG4nDDzl-13" value="Сцена" style="text;html=1;strokeColor=none;fillColor=none;align=center;verticalAlign=middle;whiteSpace=wrap;rounded=0;" parent="1" vertex="1">
          <mxGeometry x="1002.5" y="1607" width="75" height="30" as="geometry" />
        </mxCell>
        <mxCell id="I3pqL2sUIo5yyG4nDDzl-14" value="" style="endArrow=none;html=1;rounded=0;exitX=0.991;exitY=0.898;exitDx=0;exitDy=0;entryX=-0.014;entryY=0.151;entryDx=0;entryDy=0;exitPerimeter=0;entryPerimeter=0;startArrow=classicThin;startFill=1;endFill=0;" parent="1" edge="1">
          <mxGeometry width="50" height="50" relative="1" as="geometry">
            <mxPoint x="954.9200000000001" y="1613.8799999999999" as="sourcePoint" />
            <mxPoint x="1109.32" y="1613.858" as="targetPoint" />
          </mxGeometry>
        </mxCell>
        <mxCell id="I3pqL2sUIo5yyG4nDDzl-15" value="Интенты" style="text;html=1;strokeColor=none;fillColor=none;align=center;verticalAlign=middle;whiteSpace=wrap;rounded=0;" parent="1" vertex="1">
          <mxGeometry x="1005" y="1575" width="70" height="30" as="geometry" />
        </mxCell>
        <mxCell id="I3pqL2sUIo5yyG4nDDzl-16" value="" style="shape=umlActor;verticalLabelPosition=bottom;verticalAlign=top;html=1;outlineConnect=0;" parent="1" vertex="1">
          <mxGeometry x="630" y="1560" width="30" height="60" as="geometry" />
        </mxCell>
        <mxCell id="I3pqL2sUIo5yyG4nDDzl-20" value="" style="endArrow=classic;html=1;rounded=0;exitX=1.001;exitY=0.676;exitDx=0;exitDy=0;exitPerimeter=0;" parent="1" source="I3pqL2sUIo5yyG4nDDzl-3" edge="1">
          <mxGeometry width="50" height="50" relative="1" as="geometry">
            <mxPoint x="960" y="1600" as="sourcePoint" />
            <mxPoint x="1109" y="1600" as="targetPoint" />
          </mxGeometry>
        </mxCell>
        <mxCell id="I3pqL2sUIo5yyG4nDDzl-22" value="" style="endArrow=classic;html=1;rounded=0;entryX=1.001;entryY=0.171;entryDx=0;entryDy=0;entryPerimeter=0;" parent="1" target="I3pqL2sUIo5yyG4nDDzl-5" edge="1">
          <mxGeometry width="50" height="50" relative="1" as="geometry">
            <mxPoint x="1110" y="1710" as="sourcePoint" />
            <mxPoint x="960" y="1710" as="targetPoint" />
          </mxGeometry>
        </mxCell>
        <mxCell id="I3pqL2sUIo5yyG4nDDzl-23" value="Логи, имена сцен, результаты работы" style="text;html=1;strokeColor=none;fillColor=none;align=center;verticalAlign=middle;whiteSpace=wrap;rounded=0;" parent="1" vertex="1">
          <mxGeometry x="975" y="1679.5" width="130" height="25" as="geometry" />
        </mxCell>
        <mxCell id="I3pqL2sUIo5yyG4nDDzl-26" value="Логи успешной работы" style="rounded=0;whiteSpace=wrap;html=1;" parent="1" vertex="1">
          <mxGeometry x="612" y="1659.5" width="150" height="60" as="geometry" />
        </mxCell>
        <mxCell id="I3pqL2sUIo5yyG4nDDzl-27" value="Логи неудачной работы" style="rounded=0;whiteSpace=wrap;html=1;" parent="1" vertex="1">
          <mxGeometry x="612" y="1730" width="150" height="60" as="geometry" />
        </mxCell>
        <mxCell id="I3pqL2sUIo5yyG4nDDzl-28" value="Логи неправильной работы" style="rounded=0;whiteSpace=wrap;html=1;" parent="1" vertex="1">
          <mxGeometry x="612" y="1805" width="150" height="60" as="geometry" />
        </mxCell>
        <mxCell id="I3pqL2sUIo5yyG4nDDzl-29" value="" style="endArrow=none;html=1;rounded=0;exitX=0;exitY=0.5;exitDx=0;exitDy=0;" parent="1" source="I3pqL2sUIo5yyG4nDDzl-5" edge="1">
          <mxGeometry width="50" height="50" relative="1" as="geometry">
            <mxPoint x="807" y="1730" as="sourcePoint" />
            <mxPoint x="782" y="1730" as="targetPoint" />
          </mxGeometry>
        </mxCell>
        <mxCell id="I3pqL2sUIo5yyG4nDDzl-30" value="" style="endArrow=none;html=1;rounded=0;" parent="1" edge="1">
          <mxGeometry width="50" height="50" relative="1" as="geometry">
            <mxPoint x="782" y="1840" as="sourcePoint" />
            <mxPoint x="782" y="1700" as="targetPoint" />
          </mxGeometry>
        </mxCell>
        <mxCell id="I3pqL2sUIo5yyG4nDDzl-31" value="" style="endArrow=classic;html=1;rounded=0;entryX=1.002;entryY=0.341;entryDx=0;entryDy=0;entryPerimeter=0;" parent="1" edge="1">
          <mxGeometry width="50" height="50" relative="1" as="geometry">
            <mxPoint x="781.7" y="1700.04" as="sourcePoint" />
            <mxPoint x="762" y="1700" as="targetPoint" />
          </mxGeometry>
        </mxCell>
        <mxCell id="I3pqL2sUIo5yyG4nDDzl-32" value="" style="endArrow=classic;html=1;rounded=0;entryX=1.004;entryY=0.584;entryDx=0;entryDy=0;entryPerimeter=0;" parent="1" target="I3pqL2sUIo5yyG4nDDzl-28" edge="1">
          <mxGeometry width="50" height="50" relative="1" as="geometry">
            <mxPoint x="782" y="1840" as="sourcePoint" />
            <mxPoint x="922" y="1780" as="targetPoint" />
          </mxGeometry>
        </mxCell>
        <mxCell id="I3pqL2sUIo5yyG4nDDzl-33" value="" style="endArrow=classic;html=1;rounded=0;entryX=1;entryY=0.5;entryDx=0;entryDy=0;" parent="1" target="I3pqL2sUIo5yyG4nDDzl-27" edge="1">
          <mxGeometry width="50" height="50" relative="1" as="geometry">
            <mxPoint x="782" y="1760" as="sourcePoint" />
            <mxPoint x="852" y="1710" as="targetPoint" />
          </mxGeometry>
        </mxCell>
        <mxCell id="I3pqL2sUIo5yyG4nDDzl-34" value="Логи" style="text;html=1;strokeColor=none;fillColor=none;align=center;verticalAlign=middle;whiteSpace=wrap;rounded=0;" parent="1" vertex="1">
          <mxGeometry x="775.5" y="1704.5" width="60" height="30" as="geometry" />
        </mxCell>
        <mxCell id="I3pqL2sUIo5yyG4nDDzl-37" value="Успешные вопросы" style="text;html=1;strokeColor=none;fillColor=none;align=center;verticalAlign=middle;whiteSpace=wrap;rounded=0;" parent="1" vertex="1">
          <mxGeometry x="749.5" y="1654.5" width="90" height="30" as="geometry" />
        </mxCell>
        <mxCell id="I3pqL2sUIo5yyG4nDDzl-38" value="" style="endArrow=classic;html=1;rounded=0;exitX=1;exitY=0.178;exitDx=0;exitDy=0;exitPerimeter=0;entryX=-0.011;entryY=0.68;entryDx=0;entryDy=0;entryPerimeter=0;" parent="1" source="I3pqL2sUIo5yyG4nDDzl-26" target="I3pqL2sUIo5yyG4nDDzl-4" edge="1">
          <mxGeometry width="50" height="50" relative="1" as="geometry">
            <mxPoint x="870" y="1750" as="sourcePoint" />
            <mxPoint x="920" y="1700" as="targetPoint" />
          </mxGeometry>
        </mxCell>
        <mxCell id="I3pqL2sUIo5yyG4nDDzl-39" value="" style="endArrow=classic;html=1;rounded=0;exitX=0;exitY=0.25;exitDx=0;exitDy=0;" parent="1" edge="1">
          <mxGeometry width="50" height="50" relative="1" as="geometry">
            <mxPoint x="835.0000000000002" y="1635" as="sourcePoint" />
            <mxPoint x="680" y="1635" as="targetPoint" />
          </mxGeometry>
        </mxCell>
        <mxCell id="I3pqL2sUIo5yyG4nDDzl-40" value="Результаты тестирования" style="text;html=1;strokeColor=none;fillColor=none;align=center;verticalAlign=middle;whiteSpace=wrap;rounded=0;" parent="1" vertex="1">
          <mxGeometry x="690" y="1605" width="130" height="30" as="geometry" />
        </mxCell>
        <mxCell id="I3pqL2sUIo5yyG4nDDzl-42" value="" style="endArrow=classic;html=1;rounded=0;exitX=1;exitY=0.5;exitDx=0;exitDy=0;entryX=0;entryY=0.35;entryDx=0;entryDy=0;entryPerimeter=0;" parent="1" edge="1">
          <mxGeometry width="50" height="50" relative="1" as="geometry">
            <mxPoint x="955" y="1671" as="sourcePoint" />
            <mxPoint x="1110" y="1671" as="targetPoint" />
          </mxGeometry>
        </mxCell>
        <mxCell id="I3pqL2sUIo5yyG4nDDzl-44" value="Запросы" style="text;html=1;strokeColor=none;fillColor=none;align=center;verticalAlign=middle;whiteSpace=wrap;rounded=0;" parent="1" vertex="1">
          <mxGeometry x="1010" y="1649.5" width="60" height="25" as="geometry" />
        </mxCell>
        <mxCell id="I3pqL2sUIo5yyG4nDDzl-45" value="" style="endArrow=classic;html=1;rounded=0;exitX=0;exitY=0.25;exitDx=0;exitDy=0;entryX=1.007;entryY=0.388;entryDx=0;entryDy=0;entryPerimeter=0;" parent="1" target="I3pqL2sUIo5yyG4nDDzl-4" edge="1">
          <mxGeometry width="50" height="50" relative="1" as="geometry">
            <mxPoint x="1110" y="1653" as="sourcePoint" />
            <mxPoint x="960" y="1654" as="targetPoint" />
          </mxGeometry>
        </mxCell>
        <mxCell id="I3pqL2sUIo5yyG4nDDzl-46" value="Ответы" style="text;html=1;strokeColor=none;fillColor=none;align=center;verticalAlign=middle;whiteSpace=wrap;rounded=0;" parent="1" vertex="1">
          <mxGeometry x="1000" y="1630" width="75" height="30" as="geometry" />
        </mxCell>
        <mxCell id="I3pqL2sUIo5yyG4nDDzl-47" value="" style="endArrow=classic;html=1;rounded=0;" parent="1" edge="1">
          <mxGeometry width="50" height="50" relative="1" as="geometry">
            <mxPoint x="560" y="1760" as="sourcePoint" />
            <mxPoint x="610" y="1600" as="targetPoint" />
            <Array as="points">
              <mxPoint x="580" y="1760" />
              <mxPoint x="560" y="1760" />
              <mxPoint x="560" y="1600" />
            </Array>
          </mxGeometry>
        </mxCell>
        <mxCell id="I3pqL2sUIo5yyG4nDDzl-48" value="" style="endArrow=none;html=1;rounded=0;" parent="1" edge="1">
          <mxGeometry width="50" height="50" relative="1" as="geometry">
            <mxPoint x="580" y="1850" as="sourcePoint" />
            <mxPoint x="580" y="1680" as="targetPoint" />
          </mxGeometry>
        </mxCell>
        <mxCell id="I3pqL2sUIo5yyG4nDDzl-50" value="" style="endArrow=none;html=1;rounded=0;entryX=-0.002;entryY=0.341;entryDx=0;entryDy=0;entryPerimeter=0;" parent="1" target="I3pqL2sUIo5yyG4nDDzl-26" edge="1">
          <mxGeometry width="50" height="50" relative="1" as="geometry">
            <mxPoint x="580" y="1680" as="sourcePoint" />
            <mxPoint x="610" y="1680" as="targetPoint" />
          </mxGeometry>
        </mxCell>
        <mxCell id="I3pqL2sUIo5yyG4nDDzl-51" value="" style="endArrow=none;html=1;rounded=0;entryX=-0.001;entryY=0.334;entryDx=0;entryDy=0;entryPerimeter=0;" parent="1" target="I3pqL2sUIo5yyG4nDDzl-27" edge="1">
          <mxGeometry width="50" height="50" relative="1" as="geometry">
            <mxPoint x="580" y="1750" as="sourcePoint" />
            <mxPoint x="650" y="1730" as="targetPoint" />
          </mxGeometry>
        </mxCell>
        <mxCell id="I3pqL2sUIo5yyG4nDDzl-52" value="" style="endArrow=none;html=1;rounded=0;entryX=0;entryY=0.75;entryDx=0;entryDy=0;" parent="1" target="I3pqL2sUIo5yyG4nDDzl-28" edge="1">
          <mxGeometry width="50" height="50" relative="1" as="geometry">
            <mxPoint x="580" y="1850" as="sourcePoint" />
            <mxPoint x="650" y="1810" as="targetPoint" />
          </mxGeometry>
        </mxCell>
        <mxCell id="I3pqL2sUIo5yyG4nDDzl-53" value="Логи" style="text;html=1;strokeColor=none;fillColor=none;align=center;verticalAlign=middle;whiteSpace=wrap;rounded=0;" parent="1" vertex="1">
          <mxGeometry x="552" y="1568" width="60" height="30" as="geometry" />
        </mxCell>
        <mxCell id="I3pqL2sUIo5yyG4nDDzl-55" value="База данных интентов" style="rounded=0;whiteSpace=wrap;html=1;" parent="1" vertex="1">
          <mxGeometry x="835.5" y="1450" width="120" height="60" as="geometry" />
        </mxCell>
        <mxCell id="I3pqL2sUIo5yyG4nDDzl-58" value="" style="endArrow=none;html=1;rounded=0;exitX=0.5;exitY=0;exitDx=0;exitDy=0;entryX=0.5;entryY=1;entryDx=0;entryDy=0;startArrow=classicThin;startFill=1;endFill=0;" parent="1" source="I3pqL2sUIo5yyG4nDDzl-3" target="I3pqL2sUIo5yyG4nDDzl-55" edge="1">
          <mxGeometry width="50" height="50" relative="1" as="geometry">
            <mxPoint x="930" y="1600" as="sourcePoint" />
            <mxPoint x="980" y="1550" as="targetPoint" />
          </mxGeometry>
        </mxCell>
        <mxCell id="I3pqL2sUIo5yyG4nDDzl-59" value="Интенты" style="text;html=1;strokeColor=none;fillColor=none;align=center;verticalAlign=middle;whiteSpace=wrap;rounded=0;" parent="1" vertex="1">
          <mxGeometry x="895" y="1508" width="60" height="30" as="geometry" />
        </mxCell>
      </root>
    </mxGraphModel>
  </diagram>
</mxfile>
